# xmcd CD database file
#
# Track frame offsets:
#	150
#	28108
#	78915
#	101566
#	121798
#	163467
#	199094
#	246506
#	278848
#	302972
#
# Disc length: 4349 seconds
#
# Revision: 1
# Processed by: cddbd v1.5.2PL0 Copyright (c) Steve Scherf et al.
# Submitted via: CDex 1.51
#
DISCID=8a10fb0a
DTITLE=Roy Meriwether - Opening Night
DYEAR=1996
DGENRE=Jazz
TTITLE0=7 Steps to Heaven
TTITLE1=Summertime
TTITLE2=Wher Is Love
TTITLE3=Sexual Healing
TTITLE4=After Hours
TTITLE5=Lady
TTITLE6=Sweet 16 Bars
TTITLE7=Taking It To the Streets
TTITLE8=ST. James Infirmary
TTITLE9=Endless Love
EXTD=YEAR: 1996
EXTT0=
EXTT1=
EXTT2=
EXTT3=
EXTT4=
EXTT5=
EXTT6=
EXTT7=
EXTT8=
EXTT9=
PLAYORDER=
